<svg width="40" height="40" viewBox="0 0 40 40" fill="none" xmlns="http://www.w3.org/2000/svg">
<path d="M7.39489 24.0994C6.83617 24.0994 6.3402 24.0012 5.90696 23.8047C5.47609 23.6058 5.13636 23.3324 4.88778 22.9844C4.64157 22.6364 4.5161 22.2363 4.51136 21.7841H6.42898C6.43608 22.035 6.53314 22.2351 6.72017 22.3842C6.90956 22.5334 7.13447 22.608 7.39489 22.608C7.59612 22.608 7.77367 22.5653 7.92756 22.4801C8.08144 22.3925 8.20218 22.2694 8.28977 22.1108C8.37737 21.9522 8.41998 21.7675 8.41761 21.5568C8.41998 21.3438 8.37737 21.1591 8.28977 21.0028C8.20218 20.8442 8.08144 20.7223 7.92756 20.6371C7.77367 20.5495 7.59612 20.5057 7.39489 20.5057C7.18655 20.5057 6.99361 20.5566 6.81605 20.6584C6.64086 20.7578 6.51184 20.8963 6.42898 21.0739L4.69602 20.733L4.98011 16.7273H9.86648V18.304H6.59943L6.45739 19.9091H6.5C6.61364 19.6889 6.81013 19.5066 7.08949 19.3622C7.36884 19.2154 7.69318 19.142 8.0625 19.142C8.49574 19.142 8.88163 19.2427 9.22017 19.4439C9.56108 19.6451 9.82978 19.9233 10.0263 20.2784C10.2251 20.6312 10.3234 21.0384 10.321 21.5C10.3234 22.0066 10.2027 22.4564 9.95881 22.8494C9.71733 23.2401 9.3776 23.5466 8.93963 23.7692C8.50166 23.9893 7.98674 24.0994 7.39489 24.0994ZM14.34 24.1989C13.6795 24.1965 13.109 24.0438 12.6284 23.7408C12.1478 23.4377 11.7773 23.0009 11.5169 22.4304C11.2565 21.8598 11.1274 21.1757 11.1298 20.3778C11.1322 19.5777 11.2624 18.8982 11.5204 18.3395C11.7808 17.7808 12.1502 17.3558 12.6284 17.0646C13.109 16.7734 13.6795 16.6278 14.34 16.6278C15.0005 16.6278 15.5711 16.7746 16.0517 17.0682C16.5323 17.3594 16.9028 17.7843 17.1632 18.343C17.4236 18.9018 17.5526 19.58 17.5502 20.3778C17.5502 21.1804 17.42 21.867 17.1596 22.4375C16.8992 23.008 16.5287 23.4448 16.0481 23.7479C15.5699 24.0485 15.0005 24.1989 14.34 24.1989ZM14.34 22.5938C14.6809 22.5938 14.9603 22.4162 15.1781 22.0611C15.3983 21.7036 15.5072 21.1425 15.5048 20.3778C15.5048 19.8783 15.4551 19.4699 15.3556 19.1527C15.2562 18.8355 15.1189 18.6011 14.9437 18.4496C14.7685 18.2957 14.5673 18.2188 14.34 18.2188C13.9991 18.2188 13.7209 18.3916 13.5055 18.7372C13.2901 19.0829 13.18 19.6297 13.1752 20.3778C13.1729 20.8868 13.2214 21.3059 13.3208 21.6349C13.4203 21.9616 13.5576 22.2031 13.7328 22.3594C13.9103 22.5156 14.1127 22.5938 14.34 22.5938ZM19.5566 23.2116C19.282 23.2116 19.0465 23.1158 18.85 22.924C18.6558 22.7299 18.56 22.4943 18.5623 22.2173C18.56 21.9474 18.6558 21.7166 18.85 21.5249C19.0465 21.3331 19.282 21.2372 19.5566 21.2372C19.8171 21.2372 20.0467 21.3331 20.2456 21.5249C20.4468 21.7166 20.5486 21.9474 20.551 22.2173C20.5486 22.402 20.5001 22.5701 20.4054 22.7216C20.313 22.8707 20.1923 22.9903 20.0431 23.0803C19.894 23.1679 19.7318 23.2116 19.5566 23.2116ZM19.5566 19.7173C19.282 19.7173 19.0465 19.6214 18.85 19.4297C18.6558 19.2356 18.56 19 18.5623 18.723C18.56 18.4531 18.6558 18.2223 18.85 18.0305C19.0465 17.8388 19.282 17.7429 19.5566 17.7429C19.8171 17.7429 20.0467 17.8388 20.2456 18.0305C20.4468 18.2223 20.5486 18.4531 20.551 18.723C20.5486 18.9077 20.5001 19.0758 20.4054 19.2273C20.313 19.3764 20.1923 19.496 20.0431 19.5859C19.894 19.6735 19.7318 19.7173 19.5566 19.7173ZM24.514 24.0994C23.9553 24.0994 23.4593 24.0012 23.0261 23.8047C22.5952 23.6058 22.2555 23.3324 22.0069 22.9844C21.7607 22.6364 21.6352 22.2363 21.6305 21.7841H23.5481C23.5552 22.035 23.6523 22.2351 23.8393 22.3842C24.0287 22.5334 24.2536 22.608 24.514 22.608C24.7153 22.608 24.8928 22.5653 25.0467 22.4801C25.2006 22.3925 25.3213 22.2694 25.4089 22.1108C25.4965 21.9522 25.5391 21.7675 25.5368 21.5568C25.5391 21.3438 25.4965 21.1591 25.4089 21.0028C25.3213 20.8442 25.2006 20.7223 25.0467 20.6371C24.8928 20.5495 24.7153 20.5057 24.514 20.5057C24.3057 20.5057 24.1127 20.5566 23.9352 20.6584C23.76 20.7578 23.631 20.8963 23.5481 21.0739L21.8152 20.733L22.0993 16.7273H26.9856V18.304H23.7186L23.5765 19.9091H23.6191C23.7328 19.6889 23.9293 19.5066 24.2086 19.3622C24.488 19.2154 24.8123 19.142 25.1816 19.142C25.6149 19.142 26.0008 19.2427 26.3393 19.4439C26.6802 19.6451 26.9489 19.9233 27.1454 20.2784C27.3443 20.6312 27.4425 21.0384 27.4402 21.5C27.4425 22.0066 27.3218 22.4564 27.0779 22.8494C26.8365 23.2401 26.4967 23.5466 26.0588 23.7692C25.6208 23.9893 25.1059 24.0994 24.514 24.0994ZM31.4592 24.1989C30.7987 24.1965 30.2281 24.0438 29.7475 23.7408C29.2669 23.4377 28.8964 23.0009 28.636 22.4304C28.3756 21.8598 28.2466 21.1757 28.2489 20.3778C28.2513 19.5777 28.3815 18.8982 28.6396 18.3395C28.9 17.7808 29.2693 17.3558 29.7475 17.0646C30.2281 16.7734 30.7987 16.6278 31.4592 16.6278C32.1197 16.6278 32.6902 16.7746 33.1708 17.0682C33.6514 17.3594 34.0219 17.7843 34.2823 18.343C34.5427 18.9018 34.6718 19.58 34.6694 20.3778C34.6694 21.1804 34.5392 21.867 34.2788 22.4375C34.0183 23.008 33.6478 23.4448 33.1673 23.7479C32.689 24.0485 32.1197 24.1989 31.4592 24.1989ZM31.4592 22.5938C31.8001 22.5938 32.0794 22.4162 32.2972 22.0611C32.5174 21.7036 32.6263 21.1425 32.6239 20.3778C32.6239 19.8783 32.5742 19.4699 32.4748 19.1527C32.3754 18.8355 32.238 18.6011 32.0629 18.4496C31.8877 18.2957 31.6864 18.2188 31.4592 18.2188C31.1183 18.2188 30.8401 18.3916 30.6246 18.7372C30.4092 19.0829 30.2991 19.6297 30.2944 20.3778C30.292 20.8868 30.3406 21.3059 30.44 21.6349C30.5394 21.9616 30.6767 22.2031 30.8519 22.3594C31.0295 22.5156 31.2319 22.5938 31.4592 22.5938Z" fill="white"/>
</svg>
