<svg width="1528" height="359" viewBox="0 0 1528 359" fill="none" xmlns="http://www.w3.org/2000/svg">
<mask id="path-1-inside-1_5_23" fill="white">
<path fill-rule="evenodd" clip-rule="evenodd" d="M456 0C444.235 0 433.628 4.95496 426.151 12.8918L200.697 174H-1V184H199.297L426.151 346.108C433.628 354.045 444.236 359 456 359H1073C1084.99 359 1095.79 353.849 1103.28 345.638L1322.89 184H1528V174H1321.53L1103.28 13.3617C1095.79 5.15102 1084.99 0 1073 0H456Z"/>
</mask>
<path fill-rule="evenodd" clip-rule="evenodd" d="M456 0C444.235 0 433.628 4.95496 426.151 12.8918L200.697 174H-1V184H199.297L426.151 346.108C433.628 354.045 444.236 359 456 359H1073C1084.99 359 1095.79 353.849 1103.28 345.638L1322.89 184H1528V174H1321.53L1103.28 13.3617C1095.79 5.15102 1084.99 0 1073 0H456Z" fill="#040231"/>
<path d="M426.151 12.8918L431.965 21.0279L432.76 20.4599L433.43 19.7488L426.151 12.8918ZM200.697 174V184H203.902L206.511 182.136L200.697 174ZM-1 174V164H-11V174H-1ZM-1 184H-11V194H-1V184ZM199.297 184L205.111 175.864L202.503 174H199.297V184ZM426.151 346.108L433.43 339.251L432.76 338.54L431.965 337.972L426.151 346.108ZM1103.28 345.638L1097.36 337.585L1096.56 338.168L1095.9 338.895L1103.28 345.638ZM1322.89 184V174H1319.6L1316.96 175.946L1322.89 184ZM1528 184V194H1538V184H1528ZM1528 174H1538V164H1528V174ZM1321.53 174L1315.6 182.054L1318.24 184H1321.53V174ZM1103.28 13.3617L1095.9 20.1048L1096.56 20.8318L1097.36 21.4153L1103.28 13.3617ZM433.43 19.7488C439.096 13.7341 447.104 10 456 10V-10C441.367 -10 428.16 -3.82416 418.873 6.03479L433.43 19.7488ZM206.511 182.136L431.965 21.0279L420.337 4.75564L194.883 165.864L206.511 182.136ZM-1 184H200.697V164H-1V184ZM9 184V174H-11V184H9ZM199.297 174H-1V194H199.297V174ZM431.965 337.972L205.111 175.864L193.483 192.136L420.337 354.244L431.965 337.972ZM456 349C447.104 349 439.096 345.266 433.43 339.251L418.873 352.965C428.16 362.824 441.367 369 456 369V349ZM1073 349H456V369H1073V349ZM1095.9 338.895C1090.22 345.118 1082.07 349 1073 349V369C1087.92 369 1101.36 362.58 1110.67 352.381L1095.9 338.895ZM1316.96 175.946L1097.36 337.585L1109.21 353.692L1328.81 192.054L1316.96 175.946ZM1528 174H1322.89V194H1528V174ZM1518 174V184H1538V174H1518ZM1321.53 184H1528V164H1321.53V184ZM1097.36 21.4153L1315.6 182.054L1327.46 165.946L1109.21 5.30813L1097.36 21.4153ZM1073 10C1082.07 10 1090.22 13.8816 1095.9 20.1048L1110.67 6.61863C1101.36 -3.57956 1087.92 -10 1073 -10V10ZM456 10H1073V-10H456V10Z" fill="#FFA500" mask="url(#path-1-inside-1_5_23)"/>
</svg>
