<svg width="1029" height="360" viewBox="0 0 1029 360" fill="none" xmlns="http://www.w3.org/2000/svg">
<mask id="path-1-inside-1_5_20" fill="white">
<path fill-rule="evenodd" clip-rule="evenodd" d="M338 0C323.038 0 309.948 8.01435 302.788 19.9844L164.306 179H0V183H165.177L308 347V346.947C315.485 354.978 326.156 360 338 360H691C702.844 360 713.515 354.978 721 346.947V347L863.823 183H1029V179H864.694L726.212 19.9844C719.052 8.01435 705.962 0 691 0H338Z"/>
</mask>
<path fill-rule="evenodd" clip-rule="evenodd" d="M338 0C323.038 0 309.948 8.01435 302.788 19.9844L164.306 179H0V183H165.177L308 347V346.947C315.485 354.978 326.156 360 338 360H691C702.844 360 713.515 354.978 721 346.947V347L863.823 183H1029V179H864.694L726.212 19.9844C719.052 8.01435 705.962 0 691 0H338Z" fill="#040231"/>
<path d="M302.788 19.9844L305.805 22.6113L306.039 22.343L306.221 22.0376L302.788 19.9844ZM164.306 179V183H166.127L167.323 181.627L164.306 179ZM0 179V175H-4V179H0ZM0 183H-4V187H0V183ZM165.177 183L168.194 180.373L166.998 179H165.177V183ZM308 347L304.984 349.627L312 357.684V347H308ZM308 346.947L310.926 344.219L304 336.788V346.947H308ZM721 346.947H725V336.788L718.074 344.22L721 346.947ZM721 347H717V357.684L724.016 349.627L721 347ZM863.823 183V179H862.002L860.806 180.373L863.823 183ZM1029 183V187H1033V183H1029ZM1029 179H1033V175H1029V179ZM864.694 179L861.677 181.627L862.873 183H864.694V179ZM726.212 19.9844L722.779 22.0376L722.961 22.343L723.195 22.6113L726.212 19.9844ZM306.221 22.0376C312.689 11.225 324.503 4 338 4V-4C321.574 -4 307.207 4.80375 299.356 17.9311L306.221 22.0376ZM167.323 181.627L305.805 22.6113L299.772 17.3574L161.29 176.373L167.323 181.627ZM0 183H164.306V175H0V183ZM4 183V179H-4V183H4ZM165.177 179H0V187H165.177V179ZM311.016 344.373L168.194 180.373L162.161 185.627L304.984 349.627L311.016 344.373ZM304 346.947V347H312V346.947H304ZM338 356C327.311 356 317.686 351.473 310.926 344.219L305.074 349.674C313.283 358.483 325 364 338 364V356ZM691 356H338V364H691V356ZM718.074 344.22C711.314 351.473 701.689 356 691 356V364C704 364 715.717 358.483 723.926 349.674L718.074 344.22ZM725 347V346.947H717V347H725ZM860.806 180.373L717.984 344.373L724.016 349.627L866.839 185.627L860.806 180.373ZM1029 179H863.823V187H1029V179ZM1025 179V183H1033V179H1025ZM864.694 183H1029V175H864.694V183ZM723.195 22.6113L861.677 181.627L867.71 176.373L729.228 17.3574L723.195 22.6113ZM691 4C704.497 4 716.312 11.2249 722.779 22.0376L729.644 17.9311C721.793 4.80375 707.426 -4 691 -4V4ZM338 4H691V-4H338V4Z" fill="#4137FF" mask="url(#path-1-inside-1_5_20)"/>
</svg>
