<svg width="40" height="40" viewBox="0 0 40 40" fill="none" xmlns="http://www.w3.org/2000/svg">
<path d="M20.1406 19.54C22.2206 19.54 23.9106 17.85 23.9106 15.77C23.9106 13.69 22.2206 12 20.1406 12C18.0606 12 16.3706 13.69 16.3706 15.77C16.3706 17.85 18.0606 19.54 20.1406 19.54Z" fill="white"/>
<path d="M27.4605 25.4301V27.1501C27.4605 27.5601 27.1305 27.9001 26.7105 27.9001H14.0505C13.6405 27.9001 13.3005 27.5601 13.3005 27.1501V25.4301C13.3005 23.0201 15.2605 21.0601 17.6705 21.0601H23.0905C23.5805 21.0601 24.0505 21.1401 24.4905 21.3001C24.4905 21.3001 24.4905 21.2901 24.5005 21.3001C26.2205 21.8801 27.4605 23.5101 27.4605 25.4301Z" fill="white"/>
<path d="M27.4605 25.4301V27.1501C27.4605 27.5601 27.1305 27.9001 26.7105 27.9001H14.0505C13.6405 27.9001 13.3005 27.5601 13.3005 27.1501V25.4301C13.3005 23.0201 15.2605 21.0601 17.6705 21.0601H23.0905C23.5805 21.0601 24.0505 21.1401 24.4905 21.3001C24.4905 21.3001 24.4905 21.2901 24.5005 21.3001C26.2205 21.8801 27.4605 23.5101 27.4605 25.4301Z" fill="white"/>
<path d="M33.3003 24.57V25.98C33.3003 26.31 33.0303 26.58 32.7003 26.58H28.9603V25.43C28.9603 24.42 28.7003 23.46 28.2503 22.63C28.0603 22.29 27.8503 21.97 27.6103 21.68C27.4403 21.49 27.2703 21.3 27.0903 21.14H29.8703C29.9803 21.14 30.0803 21.14 30.1803 21.16C30.3103 21.17 30.4403 21.19 30.5703 21.22C31.3303 21.38 31.9903 21.8 32.4803 22.36C32.5603 22.45 32.6403 22.55 32.7103 22.66C32.7203 22.66 32.7203 22.66 32.7103 22.67C32.9003 22.95 33.0503 23.25 33.1503 23.58C33.1803 23.69 33.2103 23.8 33.2303 23.91C33.2803 24.12 33.3003 24.34 33.3003 24.57Z" fill="white"/>
<path d="M27.6804 19.4C29.3318 19.4 30.6704 18.0614 30.6704 16.41C30.6704 14.7587 29.3318 13.42 27.6804 13.42C26.0291 13.42 24.6904 14.7587 24.6904 16.41C24.6904 18.0614 26.0291 19.4 27.6804 19.4Z" fill="white"/>
<path d="M6.99995 24.57V25.98C6.99995 26.31 7.26996 26.58 7.59996 26.58H11.34V25.43C11.34 24.42 11.6 23.46 12.05 22.63C12.24 22.29 12.45 21.97 12.69 21.68C12.86 21.49 13.03 21.3 13.21 21.14H10.4299C10.3199 21.14 10.2199 21.14 10.1199 21.16C9.98995 21.17 9.85995 21.19 9.72995 21.22C8.96995 21.38 8.30996 21.8 7.81996 22.36C7.73996 22.45 7.65995 22.55 7.58995 22.66C7.57995 22.66 7.57995 22.66 7.58995 22.67C7.39995 22.95 7.24995 23.25 7.14995 23.58C7.11995 23.69 7.08996 23.8 7.06996 23.91C7.01996 24.12 6.99995 24.34 6.99995 24.57Z" fill="white"/>
<path d="M12.6201 19.4C10.9688 19.4 9.63011 18.0614 9.63011 16.41C9.63011 14.7587 10.9688 13.42 12.6201 13.42C14.2714 13.42 15.6101 14.7587 15.6101 16.41C15.6101 18.0614 14.2714 19.4 12.6201 19.4Z" fill="white"/>
</svg>
