<svg width="24" height="24" viewBox="0 0 24 24" fill="none" xmlns="http://www.w3.org/2000/svg">
<path fill-rule="evenodd" clip-rule="evenodd" d="M12.3492 20.585L7 15.9999H3C1.89543 15.9999 1 15.1045 1 13.9999V9.99995C1 8.89538 1.89543 7.99995 3 7.99995H7L12.3492 3.41492C12.9979 2.85891 14 3.31982 14 4.17417V19.8257C14 20.6801 12.9979 21.141 12.3492 20.585ZM7 13.4999C7.59678 13.4999 8.17387 13.7134 8.62698 14.1018L11.5 16.5644V7.4355L8.62698 9.89809C8.17387 10.2865 7.59678 10.4999 7 10.4999H3.5V13.4999H7Z" fill="white"/>
<path d="M17.5849 7.82209C17.1608 7.44979 16.493 7.50695 16.0659 7.93408C15.5777 8.42224 15.597 9.2092 15.9326 9.81251C16.0162 9.96289 16.0913 10.1182 16.1575 10.2779C16.3836 10.8238 16.5 11.409 16.5 11.9999C16.5 12.5909 16.3836 13.1761 16.1575 13.722C16.0913 13.8816 16.0162 14.037 15.9326 14.1874C15.597 14.7907 15.5777 15.5776 16.0659 16.0658C16.1269 16.1268 16.1928 16.1803 16.2622 16.226C16.7483 16.5463 17.4058 16.488 17.7502 15.9918C18.0348 15.5819 18.2753 15.1419 18.4672 14.6787C18.8189 13.8294 19 12.9192 19 11.9999C19 11.0807 18.8189 10.1704 18.4672 9.32116C18.4552 9.29222 18.443 9.26336 18.4306 9.2346C18.2451 8.80313 18.017 8.39234 17.7502 8.00811C17.701 7.93722 17.6454 7.87527 17.5849 7.82209Z" fill="white"/>
<path d="M18.8943 5.1057C19.3824 4.61753 20.1804 4.6136 20.61 5.15398C20.6896 5.25405 20.7674 5.35548 20.8434 5.45821C21.3753 6.17733 21.8188 6.9603 22.1627 7.79045C22.2318 7.95727 22.2967 8.12559 22.3574 8.29525C22.7822 9.48285 23 10.736 23 11.9999C23 13.4445 22.7155 14.8749 22.1627 16.2095C21.7697 17.1582 21.2466 18.0453 20.61 18.8459C20.1804 19.3863 19.3824 19.3824 18.8943 18.8942C18.4061 18.406 18.4148 17.6191 18.8262 17.0647C19.2405 16.5063 19.5856 15.898 19.8529 15.2527C20.2801 14.2215 20.4999 13.1162 20.4999 11.9999C20.4999 10.8837 20.2801 9.77844 19.8529 8.74718C19.5856 8.10193 19.2405 7.49357 18.8262 6.93521C18.4148 6.38078 18.4061 5.59387 18.8943 5.1057Z" fill="white"/>
</svg>
