<svg width="24" height="24" viewBox="0 0 24 24" fill="none" xmlns="http://www.w3.org/2000/svg">
<path fill-rule="evenodd" clip-rule="evenodd" d="M3.76776 3.00003C3.27961 2.51187 2.48815 2.51187 2 3.00003C1.51184 3.48818 1.51184 4.27964 2 4.76779L5.23224 8.00003H3C1.89543 8.00003 1 8.89546 1 10V14C1 15.1046 1.89543 16 3 16H7L12.3492 20.5851C12.9979 21.1411 14 20.6802 14 19.8258V16.7678L19.2322 22C19.7204 22.4882 20.5118 22.4882 21 22C21.4882 21.5119 21.4882 20.7204 21 20.2323L3.76776 3.00003ZM7.64705 10.4148C7.43753 10.471 7.22011 10.5 7 10.5H3.5V13.5H7C7.59678 13.5 8.17387 13.7135 8.62698 14.1019L11.5 16.5645V14.2678L7.64705 10.4148Z" fill="white"/>
<path d="M18.6093 14.306L16.4959 12.1926C16.4986 12.1285 16.5 12.0643 16.5 12C16.5 11.4091 16.3836 10.8239 16.1575 10.278C16.0913 10.1183 16.0162 9.96296 15.9326 9.81257C15.597 9.20927 15.5777 8.4223 16.0659 7.93415C16.554 7.44599 17.3566 7.44107 17.7502 8.00817C18.0348 8.41802 18.2753 8.85808 18.4672 9.32123C18.8189 10.1705 19 11.0808 19 12C19 12.7861 18.8676 13.5656 18.6093 14.306Z" fill="white"/>
<path d="M21.6263 17.323L19.7637 15.4604C19.7943 15.3916 19.8241 15.3224 19.8529 15.2528C20.2801 14.2216 20.4999 13.1163 20.4999 12C20.4999 10.8838 20.2801 9.77851 19.8529 8.74725C19.5856 8.102 19.2405 7.49364 18.8262 6.93528C18.4148 6.38084 18.4061 5.59393 18.8943 5.10576C19.3824 4.6176 20.1804 4.61366 20.61 5.15404C21.2466 5.95465 21.7697 6.84177 22.1627 7.79051C22.7155 9.1251 23 10.5555 23 12C23 13.4446 22.7155 14.875 22.1627 16.2096C22.0046 16.5912 21.8254 16.9629 21.6263 17.323Z" fill="white"/>
<path d="M14 9.6967L9.85565 5.55233L12.3492 3.41498C12.9979 2.85897 14 3.31988 14 4.17423V9.6967Z" fill="white"/>
</svg>
